<svg id="Capa_1" enable-background="new 0 0 512 512" height="512" viewBox="0 0 512 512" width="512" xmlns="http://www.w3.org/2000/svg"><g><g><g><path d="m256 369.244c-57.426 0-111.415-22.363-152.021-62.97-40.606-40.606-62.97-94.596-62.97-152.022h40c0 96.491 78.501 174.992 174.991 174.992s174.991-78.501 174.991-174.992h40c0 57.426-22.363 111.416-62.97 152.022-40.606 40.607-94.595 62.97-152.021 62.97z" fill="#ff6c52"/></g></g><g><path d="m47.5 484.5c0-29.547 23.953-53.5 53.5-53.5h310c29.547 0 53.5 23.953 53.5 53.5 0 11.046 8.954 20 20 20 11.046 0 20-8.954 20-20 0-51.639-41.861-93.5-93.5-93.5h-310c-51.639 0-93.5 41.861-93.5 93.5 0 11.046 8.954 20 20 20 11.046 0 20-8.954 20-20z" fill="#ff583e"/></g><g><path d="m464.5 297.5c0 29.547-23.953 53.5-53.5 53.5h-310c-29.547 0-53.5-23.953-53.5-53.5 0-11.046-8.954-20-20-20-11.046 0-20 8.954-20 20 0 51.639 41.861 93.5 93.5 93.5h310c51.639 0 93.5-41.861 93.5-93.5 0-11.046-8.954-20-20-20-11.046 0-20 8.954-20 20z" fill="#ff6c52"/></g><g><path d="m127.5 484.5c0-29.547 23.953-53.5 53.5-53.5h150c29.547 0 53.5 23.953 53.5 53.5 0 11.046 8.954 20 20 20 11.046 0 20-8.954 20-20 0-51.639-41.861-93.5-93.5-93.5h-150c-51.639 0-93.5 41.861-93.5 93.5 0 11.046 8.954 20 20 20 11.046 0 20-8.954 20-20z" fill="#ff6c52"/></g><g><path d="m256 449.263c-90.376 0-163.64-73.264-163.64-163.64 0-17.789 8.792-34.438 23.522-44.412 27.414-18.564 77.109-44.614 140.118-44.614s112.704 26.05 140.118 44.614c14.729 9.974 23.522 26.624 23.522 44.412 0 90.376-73.264 163.64-163.64 163.64z" fill="#ff9b87"/></g><g><path d="m331 431c-150.354-29.027-175.466-150.251-178.446-210.627-14.702 6.904-27.062 14.33-36.673 20.838-14.729 9.974-23.522 26.624-23.522 44.412 0 90.376 73.264 163.64 163.64 163.64 27.043 0 52.552-6.565 75.026-18.181z" fill="#ff8870"/></g><g><g><g><ellipse cx="176.443" cy="299.113" fill="#fff" rx="29.355" ry="23.377"/></g><g><ellipse cx="335.557" cy="299.113" fill="#fff" rx="29.355" ry="23.377"/></g></g><g><path d="m256 268.752c-8.478 0-16.54 3.672-22.119 10.073-2.721 3.123-2.396 7.86.727 10.582 3.123 2.721 7.86 2.396 10.582-.727 2.729-3.133 6.669-4.929 10.81-4.929s8.081 1.796 10.81 4.929c1.483 1.701 3.564 2.572 5.657 2.572 1.748 0 3.503-.607 4.925-1.846 3.123-2.722 3.448-7.459.727-10.582-5.579-6.4-13.641-10.072-22.119-10.072z"/><path d="m207.314 253.102-24.065-6.448c-3.997-1.075-8.113 1.302-9.186 5.303-1.072 4.001 1.302 8.114 5.303 9.186l7.079 1.897c-.252.751-.395 1.552-.395 2.387v10.366c0 4.143 3.358 7.5 7.5 7.5s7.5-3.357 7.5-7.5v-8.84l2.381.638c.65.175 1.303.258 1.946.258 3.311 0 6.342-2.21 7.24-5.561 1.073-4.001-1.301-8.114-5.303-9.186z"/><path d="m337.936 251.957c-1.072-4-5.185-6.377-9.186-5.303l-24.065 6.448c-4.001 1.071-6.375 5.185-5.304 9.186.898 3.351 3.928 5.561 7.24 5.561.643 0 1.296-.083 1.946-.258l2.381-.638v8.84c0 4.143 3.358 7.5 7.5 7.5s7.5-3.357 7.5-7.5v-10.366c0-.836-.143-1.637-.395-2.387l7.079-1.897c4.002-1.072 6.376-5.185 5.304-9.186z"/></g></g><g><path d="m82.041 114.468 53.509-24.357c14.954 14.954 35.613 24.204 58.433 24.204h.222c10.401-.027 16.679 11.324 11.098 20.102-14.66 23.057-40.431 38.356-69.778 38.356-7.402 0-14.577-.973-21.403-2.799z" fill="#ff8870"/></g><g><path d="m114.145 169.974c-2.271-8.501-3.229-17.539-2.618-26.888 2.689-41.202 36.01-74.409 77.221-76.965 1.85-.115 3.688-.168 5.512-.162 10.201.034 16.706-11.092 11.279-19.73-14.93-23.759-41.615-39.382-71.9-38.707-21.424.478-40.897 9.246-55.359 23.184l-.01-.04-52.63 52.63c-24.185 24.185-24.185 63.396 0 87.581 24.185 24.185 63.396 24.185 87.581 0l.903-.903-.002-.007c.007.002.015.004.023.007z" fill="#ff9b87"/></g><g><path d="m429.959 114.468-53.509-24.357c-14.954 14.954-35.613 24.204-58.433 24.204-.074 0-.148 0-.222 0-10.401-.027-16.679 11.324-11.098 20.102 14.66 23.057 40.431 38.356 69.778 38.356 7.402 0 14.577-.973 21.403-2.799z" fill="#ff8870"/></g><g><path d="m397.855 169.974c2.271-8.501 3.229-17.539 2.618-26.888-2.689-41.202-36.01-74.409-77.221-76.965-1.85-.115-3.688-.168-5.512-.162-10.201.034-16.706-11.092-11.279-19.73 14.93-23.759 41.615-39.382 71.9-38.707 21.424.478 40.897 9.246 55.359 23.184l.01-.04 52.63 52.63c24.185 24.185 24.185 63.396 0 87.581-24.185 24.185-63.396 24.185-87.581 0l-.903-.903.002-.007c-.007.002-.015.004-.023.007z" fill="#ff9b87"/></g><g><path d="m78.269 30.665-52.63 52.63c-24.185 24.185-24.185 63.396 0 87.581 24.185 24.185 63.396 24.185 87.581 0l.903-.903c-79.9-23.579-53.166-121.995-35.854-139.308z" fill="#ff8870"/></g><g><path d="m433.731 30.665 52.63 52.63c24.185 24.185 24.185 63.396 0 87.581-24.185 24.185-63.396 24.185-87.581 0l-.903-.903c79.9-23.579 53.166-121.995 35.854-139.308z" fill="#ff8870"/></g><path d="m512 297.5c0-15.163-12.336-27.5-27.5-27.5s-27.5 12.337-27.5 27.5c0 23.257-17.353 42.526-39.79 45.569 5.213-14.585 8.497-30.076 9.549-46.169 26.165-31.219 43.127-68.775 49.202-108.922 5.692-3.132 10.981-7.076 15.703-11.798 13.114-13.114 20.336-30.549 20.336-49.094s-7.222-35.98-20.335-49.094l-52.63-52.631c-.214-.214-.439-.413-.674-.597-16.321-15.463-37.538-24.244-59.831-24.741-32.072-.714-61.359 15.065-78.417 42.214-3.972 6.319-4.172 14.005-.537 20.558 3.652 6.582 10.59 10.663 18.119 10.663h.07c1.66 0 3.351.045 5.024.147 16.01.993 30.668 7.039 42.42 16.542-13.325 10.794-29.812 16.667-47.191 16.667h-.257c-7.54 0-14.465 4.074-18.084 10.644-3.677 6.675-3.418 14.519.692 20.982 7.528 11.839 17.867 21.901 29.901 29.101 1.206.722 2.533 1.064 3.843 1.064 2.551 0 5.039-1.302 6.443-3.65 2.126-3.555.969-8.16-2.586-10.287-10.038-6.005-18.663-14.399-24.943-24.276-1.62-2.547-.688-4.832-.212-5.695.478-.867 1.915-2.882 4.963-2.882h.24c21.418 0 41.7-7.447 57.907-21.082 9.766 11.798 16.006 26.618 17.065 42.841.444 6.807-.031 13.568-1.382 20.163-9.094 1.849-18.619 2.025-27.746.483-4.085-.687-7.954 2.062-8.645 6.146s2.061 7.955 6.146 8.646c4.959.838 10.043 1.263 15.112 1.263 6.46 0 12.879-.697 19.144-2.052 6.893 6.342 14.852 11.152 23.467 14.24-3.587 15.336-9.3 29.997-17.054 43.744-.562-.409-1.131-.812-1.709-1.204-30.925-20.941-81.067-45.904-144.323-45.904s-113.398 24.963-144.323 45.904c-.579.392-1.148.795-1.71 1.204-7.762-13.762-13.478-28.441-17.064-43.795 8.48-3.032 16.48-7.763 23.474-14.191 6.266 1.356 12.687 2.053 19.148 2.053 31.001 0 59.453-15.639 76.107-41.832 4.11-6.464 4.369-14.308.692-20.982-3.619-6.569-10.544-10.644-18.064-10.644h-.277c-17.38 0-33.866-5.873-47.191-16.668 11.752-9.503 26.409-15.548 42.418-16.541 1.594-.098 3.203-.147 4.784-.147.104 0 .207.001.311 0 7.529 0 14.468-4.081 18.12-10.663 3.636-6.553 3.435-14.238-.536-20.558-17.06-27.148-46.381-42.927-78.417-42.214-22.294.495-43.507 9.273-59.827 24.735-.236.186-.463.387-.679.602l-52.63 52.631c-13.114 13.112-20.336 30.548-20.336 49.093s7.222 35.98 20.335 49.095c4.766 4.766 10.065 8.674 15.698 11.762 6.07 40.163 23.028 77.717 49.199 108.947 1.03 15.868 4.233 31.377 9.503 46.173-22.41-3.068-39.735-22.325-39.735-45.563 0-15.163-12.336-27.5-27.5-27.5s-27.5 12.337-27.5 27.5c0 42.188 26.004 78.411 62.823 93.5-36.819 15.089-62.823 51.312-62.823 93.5 0 15.163 12.336 27.5 27.5 27.5s27.5-12.337 27.5-27.5c0-21.701 15.111-39.928 35.36-44.744-6.706 13.621-10.36 28.85-10.36 44.744 0 15.163 12.336 27.5 27.5 27.5s27.5-12.337 27.5-27.5c0-24.59 19.693-44.958 44.128-45.948 4.154 2.088 8.394 4.029 12.733 5.784 3.842 1.551 8.212-.302 9.765-4.141 1.553-3.84-.3-8.212-4.14-9.766-59.306-23.987-97.626-80.827-97.626-144.806 0-15.345 7.562-29.626 20.227-38.202 29.187-19.765 76.459-43.324 135.913-43.324s106.726 23.56 135.913 43.324c12.666 8.576 20.227 22.857 20.227 38.202 0 86.097-70.044 156.141-156.14 156.141-10.47 0-20.935-1.042-31.104-3.097-4.064-.821-8.017 1.807-8.837 5.866-.82 4.061 1.806 8.017 5.866 8.837 11.145 2.252 22.609 3.394 34.075 3.394 27.59 0 53.672-6.572 76.775-18.218 24.447.935 44.225 21.403 44.225 45.954 0 15.163 12.336 27.5 27.5 27.5s27.5-12.337 27.5-27.5c0-15.885-3.663-31.118-10.377-44.748 20.258 4.809 35.377 23.04 35.377 44.748 0 15.163 12.336 27.5 27.5 27.5s27.5-12.337 27.5-27.5c0-42.188-26.004-78.411-62.823-93.5 36.819-15.089 62.823-51.312 62.823-93.5zm-317.758-175.686c3.028 0 4.465 2.015 4.943 2.882.476.863 1.408 3.148-.212 5.695-13.887 21.842-37.606 34.881-63.449 34.881-5.104 0-10.174-.518-15.131-1.53-1.352-6.597-1.828-13.36-1.384-20.17 1.059-16.222 7.299-31.042 17.065-42.84 16.207 13.635 36.488 21.082 57.907 21.082zm-179.242 5.272c0-14.538 5.662-28.206 15.942-38.486l52.099-52.1c.152-.125.3-.257.443-.395 13.674-13.179 31.545-20.667 50.321-21.086 26.702-.58 51.158 12.562 65.382 35.198 1.467 2.335.573 4.484.121 5.3-1.022 1.843-2.892 2.94-5.004 2.94h-.021c-1.973 0-4 .053-6 .177-45.083 2.797-81.298 38.893-84.24 83.962-.549 8.418.058 16.788 1.805 24.942-10.011 9.033-22.835 13.977-36.418 13.977-14.539-.001-28.207-5.662-38.487-15.943-10.281-10.28-15.943-23.948-15.943-38.486zm54.428 69.396c2.969 0 5.937-.206 8.886-.584 4.191 17.914 11.046 34.981 20.442 50.88-6.319 7.685-10.679 16.827-12.668 26.644-16.696-23.712-28.173-50.59-33.725-79.063 5.595 1.409 11.329 2.124 17.065 2.123zm-29.428 288.018c0 6.893-5.607 12.5-12.5 12.5s-12.5-5.608-12.5-12.5c0-47.421 38.58-86 86-86h26.369c.076.087.155.172.231.258-10.681 6.632-19.853 15.045-27.214 24.757-33.353.333-60.386 27.555-60.386 60.985zm97.549-42.814c-11.317 11.485-17.549 26.689-17.549 42.814 0 6.893-5.607 12.5-12.5 12.5s-12.5-5.608-12.5-12.5c0-31.159 16.465-59.322 43.279-74.648 6.722 6.379 13.939 12.195 21.598 17.395-8.318 3.064-15.93 7.946-22.328 14.439zm-21.932-58.186h-14.617c-47.42 0-86-38.579-86-86 0-6.893 5.607-12.5 12.5-12.5s12.5 5.607 12.5 12.5c0 33.636 27.364 61 61 61h.109c3.902 8.275 8.481 16.269 13.729 23.909.253.369.523.724.779 1.091zm292.341-240.903c-2.942-45.069-39.157-81.165-84.242-83.962-1.901-.118-3.82-.177-5.711-.177-.104 0-.217-.004-.309 0-2.112 0-3.981-1.098-5.003-2.94-.452-.815-1.347-2.965.121-5.3 14.224-22.637 38.69-35.789 65.382-35.198 18.776.419 36.646 7.907 50.321 21.086.143.137.29.268.441.392l52.1 52.102c10.28 10.28 15.942 23.948 15.942 38.486 0 14.539-5.662 28.207-15.942 38.487-20.545 20.546-53.565 21.2-74.906 1.965 1.747-8.154 2.355-16.523 1.806-24.941zm34.613 53.919c5.828 0 11.545-.716 17.054-2.101-5.556 28.448-17.029 55.313-33.714 79.009-1.989-9.818-6.349-18.96-12.668-26.646 9.39-15.888 16.242-32.942 20.434-50.843 2.928.372 5.895.581 8.894.581zm-38.071 300.484c-6.893 0-12.5-5.607-12.5-12.5 0-16.039-6.176-31.187-17.389-42.651-6.452-6.596-14.161-11.541-22.592-14.63 7.674-5.221 14.903-11.048 21.618-17.412 26.854 15.318 43.363 43.539 43.363 74.693 0 6.892-5.607 12.5-12.5 12.5zm92.5-12.5c0 6.893-5.607 12.5-12.5 12.5s-12.5-5.607-12.5-12.5c0-33.434-27.04-60.659-60.398-60.985-7.376-9.732-16.571-18.159-27.273-24.797.064-.073.13-.145.194-.218h26.477c47.42 0 86 38.579 86 86zm-86-101h-14.694c5.511-7.876 10.375-16.235 14.518-25h.176c33.636 0 61-27.364 61-61 0-6.893 5.607-12.5 12.5-12.5s12.5 5.607 12.5 12.5c0 47.421-38.58 86-86 86z"/></g></svg>