<?xml version="1.0"?>
<svg xmlns="http://www.w3.org/2000/svg" xmlns:xlink="http://www.w3.org/1999/xlink" xmlns:svgjs="http://svgjs.com/svgjs" version="1.1" width="512" height="512" x="0" y="0" viewBox="0 0 64 64" style="enable-background:new 0 0 512 512" xml:space="preserve"><g transform="matrix(0.8999999999999999,0,0,0.8999999999999999,3.200000000000003,3.200000000000003)"><g xmlns="http://www.w3.org/2000/svg" id="_02-discord" data-name="02-discord"><path d="M36,53a1,1,0,0,1-.98-.8l-1-5A1,1,0,0,1,35,46a18.177,18.177,0,0,0,5.385-1.065A38.373,38.373,0,0,1,32,46a38.373,38.373,0,0,1-8.385-1.065A18.177,18.177,0,0,0,29,46a1,1,0,0,1,.98,1.2l-1,5a.99.99,0,0,1-1.036.8,56.377,56.377,0,0,1-16.392-3.154,6.942,6.942,0,0,1-4.545-6.83A113.094,113.094,0,0,1,9.161,25.8l1.961.393A111.144,111.144,0,0,0,9.005,43.1a4.949,4.949,0,0,0,3.242,4.867A53.616,53.616,0,0,0,27.19,50.948l.6-3.02a19.263,19.263,0,0,1-11.5-5.22,1,1,0,0,1,.96-1.675c.053.013.2.061.434.14C24.62,43.509,29.3,44,32,44s7.38-.491,14.313-2.827c.233-.079.381-.127.434-.14a1,1,0,0,1,.96,1.675,19.263,19.263,0,0,1-11.5,5.22l.6,3.02A53.616,53.616,0,0,0,51.753,47.97,4.949,4.949,0,0,0,55,43.1q-.045-1.029-.112-2.039l2-.129q.068,1.03.114,2.081a6.942,6.942,0,0,1-4.545,6.829A56.377,56.377,0,0,1,36.056,53ZM54.735,39.084a118.445,118.445,0,0,0-3.818-21.119,4.961,4.961,0,0,0-3.438-3.484,36.938,36.938,0,0,0-5.892-1.048,22.768,22.768,0,0,1,5.149,3.831l-.012.012a.9.9,0,0,1,.221.277A1,1,0,0,1,46.8,18.62a1.008,1.008,0,0,1-1.263.223A42.354,42.354,0,0,0,32,16h-.027a38.3,38.3,0,0,0-13.2,2.785c-.276.1-.453.166-.516.182a1,1,0,0,1-.96-1.675A23.035,23.035,0,0,1,22.5,13.423a37.251,37.251,0,0,0-5.981,1.058,4.962,4.962,0,0,0-3.438,3.483c-.184.657-.389,1.421-.608,2.283l-1.939-.5c.224-.878.434-1.657.621-2.325a6.944,6.944,0,0,1,4.821-4.87A54.952,54.952,0,0,1,28.972,11a1,1,0,0,1,.231,1.979,21.827,21.827,0,0,0-5.8,2.226A34.256,34.256,0,0,1,31.972,14H32a49.749,49.749,0,0,1,8.635,1.2A22.209,22.209,0,0,0,34.8,12.979a1,1,0,0,1-.79-1.095A1.019,1.019,0,0,1,35.028,11a54.952,54.952,0,0,1,12.994,1.557,6.947,6.947,0,0,1,4.822,4.87,120.609,120.609,0,0,1,3.884,21.489Zm-43.2-14.871-1.955-.426q.232-1.059.459-2.016l1.946.459C11.84,22.857,11.689,23.52,11.538,24.213Z" fill="#000000" data-original="#000000"/><path d="M22,39a6,6,0,1,1,6-6A6.006,6.006,0,0,1,22,39Zm0-10a4,4,0,1,0,4,4A4,4,0,0,0,22,29Z" fill="#000000" data-original="#000000"/><path d="M42,39a6,6,0,1,1,6-6A6.006,6.006,0,0,1,42,39Zm0-10a4,4,0,1,0,4,4A4,4,0,0,0,42,29Z" fill="#000000" data-original="#000000"/><path d="M57,64H7a7.008,7.008,0,0,1-7-7V7A7.008,7.008,0,0,1,7,0H9V2H7A5.006,5.006,0,0,0,2,7V57a5.006,5.006,0,0,0,5,5H57a5.006,5.006,0,0,0,5-5V55h2v2A7.008,7.008,0,0,1,57,64Z" fill="#000000" data-original="#000000"/><path d="M64,53H62V11c0-3.361-.649-9-5-9H15V0H57c2.1,0,7,1.072,7,11Z" fill="#000000" data-original="#000000"/><rect x="11" width="2" height="2" fill="#000000" data-original="#000000"/></g></g></svg>
