<svg height="511pt" viewBox="-57 1 511 511.99898" width="511pt" xmlns="http://www.w3.org/2000/svg"><path d="m334.28125 298.003906c0 3.21875-.527344 6.371094-1.507812 9.386719-4.707032 14.320313-19.914063 25.480469-39.078126 25.480469h-222.398437c-28.550781 0-48.160156-24.707032-37.785156-47.597656l.683593-1.519532c14.453126-31.882812 45.601563-55.203125 82.84375-63.703125 10.113282-2.3125 20.679688-3.535156 31.484376-3.535156h67.964843c51.59375 0 97.683594 27.785156 115.316407 69.511719 1.691406 3.996094 2.476562 8.03125 2.476562 11.976562zm0 0" fill="#4b5055"/><path d="m329.175781 74.667969c-1.132812 13.902343-8.519531 25.480469-18.113281 25.480469h-100.121094c-11.8125 0-22.21875-18.683594-16.714844-41.160157.03125-.121093.0625-.242187.09375-.375 7.132813-29.863281 33.550782-50.972656 63.996094-50.972656h5.3125c30.839844 0 57.679688 21.566406 64.292969 51.960937.101563.449219.195313.875.285156 1.292969 1.050781 4.628907 1.335938 9.316407.96875 13.773438zm0 0" fill="#4b5055"/><path d="m334.28125 298.003906c0 3.21875-.527344 6.371094-1.507812 9.386719h-208.476563c-28.550781 0-48.160156-24.707031-37.785156-47.597656l.683593-1.519531c6.707032-14.789063 17-27.742188 29.84375-38.222657 10.113282-2.3125 20.679688-3.535156 31.484376-3.535156h67.964843c51.59375 0 97.683594 27.785156 115.316407 69.511719 1.691406 3.996094 2.476562 8.03125 2.476562 11.976562zm0 0" fill="#5a5f64"/><path d="m329.175781 74.667969h-65.230469c-11.816406 0-22.222656-18.683594-16.71875-41.160157.03125-.121093.0625-.242187.09375-.375 2.273438-9.519531 6.511719-18.152343 12.210938-25.492187h4.097656c30.839844 0 57.679688 21.566406 64.292969 51.960937.101563.449219.195313.875.285156 1.292969 1.050781 4.628907 1.335938 9.316407.96875 13.773438zm0 0" fill="#5a5f64"/><path d="m375.765625 191.035156c-4.003906 14.296875-16.949219 25.480469-33.328125 25.480469h-189.703125c-19.792969 0-34.636719-16.359375-34.636719-34.859375 0-3.945312.675782-7.992188 2.121094-11.984375 13.109375-36.367187 44.644531-62.136719 81.652344-68.160156 5.464844-.894531 11.050781-1.355469 16.714844-1.355469h57.976562c43.132812 0 81.84375 26.695312 97.519531 67.242188l.59375 1.515624c2.894531 7.492188 3.046875 15.167969 1.089844 22.121094zm0 0" fill="#7d8287"/><path d="m375.765625 191.035156h-170.03125c-19.792969 0-34.632813-16.359375-34.632813-34.859375 0-3.945312.671876-7.992187 2.117188-11.988281 6.054688-16.785156 16.023438-31.308594 28.652344-42.675781 5.464844-.894531 11.050781-1.355469 16.714844-1.355469h57.976562c43.132812 0 81.84375 26.695312 97.519531 67.242188l.59375 1.515624c2.894531 7.492188 3.046875 15.167969 1.089844 22.121094zm0 0" fill="#919196"/><path d="m389.820312 452.96875c0 9.277344-2.527343 18.195312-7.011718 25.910156-8.703125 14.984375-24.777344 25.480469-44.019532 25.480469h-279.582031c-35.878906 0-60.542969-36.417969-47.496093-70.144531l.867187-2.242188c18.285156-47.3125 57.851563-81.824218 105.082031-94.136718 12.425782-3.25 25.390625-4.964844 38.628906-4.964844h85.445313c64.863281 0 122.800781 40.945312 144.96875 102.445312 2.117187 5.890625 3.117187 11.84375 3.117187 17.652344zm0 0" fill="#7d8287"/><path d="m389.820312 452.96875c0 9.277344-2.527343 18.195312-7.011718 25.910156h-270.601563c-35.875 0-60.542969-36.417968-47.496093-70.144531l.867187-2.242187c10.835937-28.027344 29.140625-51.574219 52.082031-68.65625 12.425782-3.25 25.390625-4.964844 38.628906-4.964844h85.445313c64.863281 0 122.800781 40.945312 144.96875 102.445312 2.117187 5.890625 3.117187 11.84375 3.117187 17.652344zm0 0" fill="#919196"/><path d="m397.3125 448.765625c-.300781-4.210937-3.945312-7.375-8.167969-7.078125-4.210937.300781-7.382812 3.957031-7.078125 8.167969 1.796875 25.296875-18.15625 46.855469-43.277344 46.855469h-279.578124c-23.929688 0-43.394532-19.625-43.394532-43.753907 0-29.1875 46.285156-112.4375 140.476563-112.4375h85.445312c55.699219 0 107.4375 32.644531 131.804688 83.167969 1.832031 3.804688 6.402343 5.402344 10.207031 3.566406 3.800781-1.832031 5.398438-6.402344 3.5625-10.203125-16.667969-34.570312-45.035156-62.355469-80.601562-78.082031 26.703124-6.5 42.171874-32.183594 32.140624-55.914062-10.703124-25.324219-31.320312-45.890626-57.164062-58.894532h60.746094c28.035156 0 50.996094-27.90625 38.777344-59.515625-10.511719-27.199219-30.851563-49.136719-57.292969-61.566406 13.039062-10.394531 18.949219-36.128906 4.949219-63.261719-1.9375-3.753906-6.550782-5.222656-10.296876-3.289062-3.753906 1.933594-5.226562 6.546875-3.289062 10.296875 13.167969 25.519531 2.824219 45.683593-4.222656 45.683593h-100.117188c-4.316406 0-10.582031-8.28125-10.582031-21.257812 0-26.441406 23.4375-55.957031 57.960937-55.957031 7.527344 0 23.042969-.867188 39.535157 11.1875 3.40625 2.492187 8.1875 1.75 10.679687-1.65625 2.492188-3.410157 1.75-8.191407-1.660156-10.683594-18.871094-13.800781-36.269531-14.140625-48.554688-14.140625-57.171874 0-87.730468 62.667969-66.699218 95.792969-14.289063 3.546875-27.777344 9.925781-39.867188 18.949219-3.382812 2.527343-4.078125 7.316406-1.554687 10.699218 2.523437 3.386719 7.316406 4.078125 10.699219 1.554688 16.820312-12.558594 36.769531-19.195313 57.6875-19.195313h57.976562c61.070312 0 92.859375 53.949219 92.859375 73.835938 0 15.015625-12.105469 27.234375-26.988281 27.234375-7.917969 0-181.984375 0-189.703125 0-18.546875 0-31.8125-18.617188-25.324219-36.609375 3.269531-9.070313 7.824219-17.570313 13.542969-25.265625 2.515625-3.390625 1.808593-8.179688-1.578125-10.695313-3.390625-2.519531-8.179688-1.8125-10.695313 1.578125-6.609375 8.898438-11.875 18.722656-15.652343 29.199219-5.613282 15.574219-1.8125 32.503906 9.335937 44.097656-40.453125 7.167969-77.726563 31.015625-95.816406 70.945313-12.539063 27.679687 10.171875 58.394531 44.753906 58.394531h16.609375c-37.207031 17.53125-66.640625 47.761719-83.332031 90.941406-15.121094 39.128907 13.78125 80.542969 54.636719 80.542969h279.578124c34.011719 0 60.984376-29.167969 58.523438-63.234375zm-326.015625-123.535156c-20.992187 0-39.800781-16.976563-30.136719-38.320313 15.511719-34.234375 54.730469-62.75 111.570313-62.75h63.761719c48.371093 0 91.882812 26.058594 108.277343 64.84375 7.527344 17.820313-8.605469 36.226563-31.078125 36.226563-10.511718 0-211.855468 0-222.394531 0zm0 0"/></svg>