<?xml version="1.0"?>
<svg xmlns="http://www.w3.org/2000/svg" xmlns:xlink="http://www.w3.org/1999/xlink" xmlns:svgjs="http://svgjs.com/svgjs" version="1.1" width="512" height="512" x="0" y="0" viewBox="0 0 512 512" style="enable-background:new 0 0 512 512" xml:space="preserve" class=""><g><g xmlns="http://www.w3.org/2000/svg"><path d="m272 172.5 16.82-151.82 135 135z" fill="#4f9eff" data-original="#4fdbff" class=""/><path d="m407 504.5-45-362h30c24.853 0 45 20.147 45 45v317z" fill="#c4f3ff" data-original="#c4f3ff" class=""/><path d="m407 187.5v317h-332v-497h182c24.853 0 45 20.147 45 45v90h60c24.853 0 45 20.147 45 45z" fill="#ffffff" data-original="#ffffff" class=""/><path d="m429.105 150.395c.018-.018-134.982-135.018-134.982-135.018-9.524-9.489-22.649-15.377-37.123-15.377h-182c-4.143 0-7.5 3.357-7.5 7.5v233.5c0 4.143 3.357 7.5 7.5 7.5s7.5-3.357 7.5-7.5v-226h174.5c20.678 0 37.5 16.822 37.5 37.5v90c0 4.143 3.357 7.5 7.5 7.5h90c20.678 0 37.5 16.822 37.5 37.5v309.5h-347v-226c0-4.143-3.357-7.5-7.5-7.5s-7.5 3.357-7.5 7.5v233.5c0 4.143 3.357 7.5 7.5 7.5h362c4.143 0 7.5-3.357 7.5-7.5v-317c0-14.474-5.888-27.599-15.395-37.105zm-119.605-15.395v-82.5c0-.183-.012-.363-.014-.545l83.059 83.059c-.182-.002-.362-.014-.545-.014z" fill="#000000" data-original="#000000"/></g></g></svg>
