<svg id="Capa_1" enable-background="new 0 0 512.006 512.006" height="512" viewBox="0 0 512.006 512.006" width="512" xmlns="http://www.w3.org/2000/svg"><g><g><path d="m188.882 348.598h-52.761c-31.522 0-59.43-21.212-67.867-51.585-4.571-16.461-21.622-26.101-38.083-21.525-16.46 4.572-26.097 21.622-21.525 38.083 15.846 57.049 68.266 96.892 127.475 96.892h52.761z" fill="#ff583e"/></g><g><path d="m481.848 275.488c-16.46-4.573-33.509 5.065-38.083 21.525-8.437 30.372-36.345 51.585-67.868 51.585h-52.76v61.865h52.76c59.208 0 111.628-39.843 127.475-96.892 4.573-16.46-5.064-33.51-21.524-38.083z" fill="#ff583e"/></g><g><path d="m199.917 338.018c-34.092 11.689-64.029 34.445-88.263 67.462-17.077 23.266-44.175 37.157-72.485 37.157h-.076c-16.855 0-31.102 13.215-31.564 30.063-.48 17.481 13.548 31.803 30.921 31.803h.719c47.931 0 93.672-23.333 122.358-62.416 25.007-34.07 56.795-51.345 94.482-51.345 37.686 0 69.475 17.275 94.482 51.345 28.688 39.083 74.429 62.416 122.358 62.416h.72c17.372 0 31.4-14.322 30.921-31.803-.462-16.848-14.71-30.063-31.564-30.063h-.076c-28.31 0-55.407-13.891-72.485-37.157-24.232-33.013-54.164-55.768-88.252-67.458-.004-.001-.004-.006 0-.008z" fill="#ff6c52"/></g><g><path d="m393.435 444.503h-.121c-18.402 0-34.609-12.003-40.327-29.869-7.942-24.809-19.73-44.392-34.713-58.196 68.725-25.339 117.735-91.412 117.735-168.935 0-99.411-80.589-180-180-180s-180 80.589-180 180c0 77.523 49.01 143.596 117.735 168.935-14.982 13.804-26.771 33.387-34.713 58.196-5.718 17.865-21.925 29.869-40.327 29.869h-.121c-16.568 0-30 13.432-30 30s13.432 30 30 30h.121c44.597 0 83.768-28.765 97.472-71.577 12.915-40.348 32.471-40.348 39.833-40.348s26.918 0 39.833 40.348c13.704 42.813 52.875 71.578 97.472 71.578h.121c16.568 0 30-13.432 30-30s-13.431-30.001-30-30.001z" fill="#ff9b87"/></g><g><path d="m216.176 432.926c12.915-40.348 32.471-40.348 39.833-40.348s26.918 0 39.833 40.348c13.704 42.813 52.875 71.578 97.472 71.578h.121c16.568 0 30-13.432 30-30s-13.432-30-30-30h-.121c-18.402 0-34.609-12.003-40.327-29.869-7.942-24.809-19.73-44.392-34.713-58.196-199.925-30.396-242.286-252.499-171.297-312.152-43.128 32.884-70.967 84.795-70.967 143.216 0 77.523 49.01 143.596 117.735 168.935-14.982 13.804-26.771 33.387-34.713 58.196-5.718 17.865-21.925 29.869-40.327 29.869h-.121c-16.568 0-30 13.432-30 30s13.432 30 30 30h.121c44.596 0 83.767-28.765 97.471-71.577z" fill="#ff8870"/></g><g><g><g><ellipse cx="176.365" cy="267.542" fill="#fff" rx="29.387" ry="23.403"/></g><g><ellipse cx="335.654" cy="267.542" fill="#fff" rx="29.387" ry="23.403"/></g><g><path d="m279.703 249.56c0-14.643-10.608-16.019-23.694-16.019-13.085 0-23.693 1.376-23.693 16.019s10.608 26.513 23.693 26.513c13.086 0 23.694-11.87 23.694-26.513z" fill="#636978"/></g></g><g><path d="m181.278 247.101c-4.142 0-7.5-3.358-7.5-7.5v-12c0-4.142 3.358-7.5 7.5-7.5s7.5 3.358 7.5 7.5v12c0 4.143-3.358 7.5-7.5 7.5z"/></g><g><path d="m256.009 283.573c-17.2 0-31.193-15.258-31.193-34.013 0-23.519 21.859-23.519 31.193-23.519s31.193 0 31.193 23.519c.001 18.755-13.992 34.013-31.193 34.013zm0-42.531c-15.539 0-16.193 2.611-16.193 8.519 0 10.484 7.264 19.013 16.193 19.013s16.193-8.529 16.193-19.013c.001-5.908-.654-8.519-16.193-8.519z"/></g><g><path d="m330.742 247.101c-4.143 0-7.5-3.358-7.5-7.5v-12c0-4.142 3.357-7.5 7.5-7.5s7.5 3.358 7.5 7.5v12c0 4.143-3.358 7.5-7.5 7.5z"/></g></g><g><circle cx="181.277" cy="154.846" fill="#ff8870" r="25"/></g><g><circle cx="345.678" cy="137.374" fill="#ff8870" r="25"/></g><g><circle cx="291.155" cy="82.313" fill="#ff8870" r="15"/></g><path d="m472.849 435.138c-21.115 0-41.503-8.453-56.809-23.118 20.333-6.134 39.109-16.845 54.852-31.417 19.061-17.643 32.791-40.127 39.707-65.024 5.672-20.419-6.325-41.645-26.743-47.316-20.419-5.673-41.645 6.324-47.317 26.744-7.539 27.138-32.476 46.092-60.641 46.092h-12.277c17.472-12.249 32.818-27.471 45.41-45.218 22.556-31.791 34.479-69.267 34.479-108.377 0-103.388-84.112-187.5-187.5-187.5s-187.5 84.112-187.5 187.5c0 37.535 11.055 73.757 31.969 104.75 2.317 3.433 6.979 4.338 10.412 2.021 3.434-2.317 4.338-6.979 2.021-10.412-19.235-28.504-29.403-61.825-29.403-96.359 0-95.117 77.383-172.5 172.5-172.5s172.5 77.383 172.5 172.5c0 71.954-45.343 137.016-112.83 161.898-2.45.904-4.255 3.017-4.762 5.579-.508 2.562.354 5.204 2.274 6.974 7.712 7.106 14.566 15.951 20.372 26.29 1.376 2.45 3.923 3.829 6.546 3.829 1.243 0 2.504-.31 3.665-.962 3.612-2.028 4.896-6.6 2.867-10.212-4.504-8.022-9.598-15.279-15.211-21.683 1.593-.699 3.166-1.433 4.735-2.174 21.899 12.362 41.453 30.126 58.151 52.876 18.485 25.184 47.843 40.22 78.607 40.22 12.927 0 23.723 10.214 24.067 22.768.175 6.393-2.179 12.431-6.627 17.003-4.451 4.574-10.416 7.094-16.797 7.094h-.72c-15.349 0-30.485-2.489-45.104-7.392 2.045-4.625 3.189-9.734 3.189-15.108 0-20.678-16.822-37.5-37.5-37.5h-.121c-15.129 0-28.465-9.908-33.185-24.657-.271-.848-.547-1.689-.827-2.525-1.314-3.929-5.562-6.046-9.492-4.733-3.928 1.314-6.047 5.563-4.732 9.492.259.775.515 1.557.766 2.341 6.717 20.984 25.793 35.083 47.471 35.083h.121c12.406 0 22.5 10.093 22.5 22.5s-10.094 22.5-22.5 22.5h-.121c-41.322 0-77.623-26.669-90.329-66.364-14.583-45.561-38.964-45.561-46.976-45.561s-32.392 0-46.976 45.562c-12.706 39.694-49.006 66.364-90.329 66.364h-.121c-12.407 0-22.5-10.093-22.5-22.5s10.093-22.5 22.5-22.5h.121c21.678 0 40.754-14.099 47.47-35.082 7.496-23.417 18.481-41.911 32.652-54.967 1.921-1.77 2.783-4.412 2.275-6.974s-2.312-4.675-4.763-5.579c-24.624-9.079-47.245-23.989-65.418-43.12-2.852-3.003-7.599-3.126-10.603-.272-3.003 2.853-3.125 7.6-.272 10.603 8.632 9.087 18.192 17.296 28.452 24.485h-12.377c-28.166 0-53.102-18.954-60.641-46.091-2.747-9.892-9.182-18.122-18.119-23.173-8.938-5.052-19.308-6.319-29.198-3.571-9.891 2.748-18.12 9.182-23.171 18.119s-6.32 19.306-3.573 29.198c6.885 24.786 20.532 47.193 39.467 64.801 15.786 14.68 34.654 25.473 55.094 31.64-15.308 14.666-35.709 23.119-56.886 23.119-20.973 0-38.496 16.758-39.062 37.357-.288 10.475 3.573 20.375 10.87 27.875 7.299 7.502 17.083 11.634 27.548 11.634h.719c18.522 0 36.757-3.266 54.265-9.709 6.657 6.03 15.481 9.709 25.149 9.709h.121c47.871 0 89.913-30.86 104.615-76.791 11.246-35.135 26.273-35.135 32.69-35.135s21.443 0 32.69 35.134c14.702 45.931 56.743 76.791 104.614 76.791h.121c9.668 0 18.492-3.679 25.149-9.708 17.508 6.442 35.742 9.708 54.265 9.708h.72c10.466 0 20.249-4.131 27.548-11.634 7.297-7.5 11.157-17.399 10.87-27.875-.559-20.602-18.083-37.36-39.133-37.36zm-110.636-79.04h13.686c34.878 0 65.758-23.471 75.094-57.077 3.458-12.45 16.406-19.764 28.849-16.306 12.449 3.458 19.764 16.4 16.306 28.849-11.997 43.19-47.427 77.258-90.938 87.882-12.819-17.162-27.211-31.672-42.997-43.348zm-346.341-44.534c-1.675-6.031-.902-12.353 2.178-17.802s8.097-9.372 14.129-11.047c6.03-1.677 12.353-.903 17.801 2.177 5.449 3.08 9.372 8.098 11.047 14.129 9.335 33.606 40.215 57.077 75.094 57.077h13.684c-15.785 11.675-30.175 26.185-42.991 43.345-44.109-10.697-78.769-44.057-90.942-87.879zm22.578 185.439c-6.381 0-12.346-2.52-16.797-7.094-4.449-4.573-6.802-10.611-6.627-17.003.345-12.554 11.141-22.768 24.143-22.768 30.689 0 60.046-15.035 78.531-40.219 16.703-22.756 36.261-40.523 58.164-52.884 1.566.743 3.139 1.47 4.725 2.169-12.216 13.916-21.848 31.738-28.7 53.145-4.72 14.747-18.055 24.655-33.184 24.655h-.121c-20.678 0-37.5 16.822-37.5 37.5 0 5.374 1.145 10.482 3.189 15.108-14.62 4.903-29.755 7.392-45.104 7.392h-.719z"/></g></svg>