<?xml version="1.0"?>
<svg xmlns="http://www.w3.org/2000/svg" xmlns:xlink="http://www.w3.org/1999/xlink" xmlns:svgjs="http://svgjs.com/svgjs" version="1.1" width="512" height="512" x="0" y="0" viewBox="0 0 512 512" style="enable-background:new 0 0 512 512" xml:space="preserve" class=""><g>
<g xmlns="http://www.w3.org/2000/svg">
	<path style="" d="M280.393,282.22l39.639-14.147L237.004,35.444c-7.782-21.801-31.986-33.273-53.787-25.492l0,0   c-21.801,7.782-33.273,31.986-25.492,53.787l68.88,192.989C234.387,278.53,258.591,290.002,280.393,282.22z" fill="#94cbed" data-original="#94cbed" class=""/>
	<path style="" d="M280.393,282.22l39.639-14.147L237.004,35.444c-0.828-2.319-1.851-4.513-3.028-6.587   c-6.761,28.642-20.873,73.843-48.282,113.246l40.911,114.625C234.387,278.53,258.591,290.002,280.393,282.22z" fill="#94cbed" data-original="#94cbed" class=""/>
</g>
<path xmlns="http://www.w3.org/2000/svg" style="" d="M231.595,282.22l-39.639-14.147l83.028-232.628c7.782-21.801,31.986-33.273,53.787-25.492l0,0  c21.801,7.782,33.273,31.986,25.492,53.787l-68.88,192.989C277.601,278.53,253.397,290.002,231.595,282.22z" fill="#cae7fc" data-original="#cae7fc" class=""/>
<circle xmlns="http://www.w3.org/2000/svg" style="" cx="255.989" cy="227.001" r="16.487" fill="#787680" data-original="#787680" class=""/>
<path xmlns="http://www.w3.org/2000/svg" style="" d="M431.906,498.648c47.308-16.885,70.086-74.207,50.875-128.032  c-15.283-42.82-53.287-70.655-91.701-71.694c0,0-61.132-3.062-71.58-32.337l-50.332,17.964  C269.169,284.55,297.756,546.528,431.906,498.648z M359.911,414.47c-9.482-26.567-0.452-55.093,19.718-62.291  s45.221,9.163,54.704,35.73c9.482,26.567,0.452,55.093-19.718,62.292C394.444,457.399,369.393,441.036,359.911,414.47z" fill="#566bd6" data-original="#7de2e2" class=""/>
<g xmlns="http://www.w3.org/2000/svg">
	<path style="" d="M351.757,291.503c-16.952,39.429-53.761,153.1,52.641,212.89   C293.783,509.936,269.169,284.55,269.169,284.55l50.332-17.964C323.948,279.045,337.569,286.754,351.757,291.503z" fill="#667dd3" data-original="#66d3d0" class=""/>
	<path style="" d="M434.333,387.908c-9.482-26.567-34.533-42.929-54.704-35.73c0,0,73.95-64.787,103.152,18.438   c29.202,83.226-68.167,79.584-68.167,79.584C434.785,443,443.815,414.475,434.333,387.908z" fill="#667dd3" data-original="#66d3d0" class=""/>
</g>
<path xmlns="http://www.w3.org/2000/svg" style="" d="M242.818,284.55l-50.332-17.964c-10.449,29.275-71.58,32.337-71.58,32.337  c-38.413,1.039-76.418,28.874-91.701,71.694C9.994,424.442,32.772,481.764,80.08,498.648  C214.231,546.528,242.818,284.55,242.818,284.55z M97.372,450.2c-20.17-7.199-29.2-35.726-19.718-62.292  c9.482-26.567,34.533-42.929,54.704-35.73c20.17,7.199,29.201,35.725,19.718,62.291C142.594,441.036,117.543,457.399,97.372,450.2z" fill="#597ac6" data-original="#a0f0f2" class=""/>
<g xmlns="http://www.w3.org/2000/svg">
	<path style="" d="M160.225,291.505c16.952,39.429,53.768,153.098-52.635,212.888   c110.614,5.543,135.228-219.843,135.228-219.843l-50.332-17.964C188.039,279.045,174.412,286.756,160.225,291.505z" fill="#566bd6" data-original="#7de2e2" class=""/>
	<path style="" d="M77.654,387.908c9.482-26.567,34.533-42.929,54.704-35.73c0,0-73.95-64.787-103.152,18.438   S97.373,450.2,97.373,450.2C77.202,443,68.172,414.475,77.654,387.908z" fill="#566bd6" data-original="#7de2e2" class=""/>
</g>
<path xmlns="http://www.w3.org/2000/svg" d="M489.844,368.095c-7.878-22.073-21.597-41.072-39.674-54.944c-17.508-13.435-38.38-21.148-58.785-21.723  c-1.115-0.063-15.16-0.919-30.244-4.943c-13.393-3.573-30.259-10.36-34.572-22.406l-17.925-50.221l23.602-66.129  c1.393-3.901-0.642-8.192-4.542-9.584c-3.904-1.393-8.193,0.641-9.585,4.542l-39.802,111.518  c-5.068,14.198-18.949,23.506-33.987,22.92l-42.261-15.083l79.976-224.079c6.411-17.961,26.24-27.361,44.202-20.949  c17.963,6.412,27.361,26.241,20.95,44.203l-18.651,52.257c-1.393,3.901,0.642,8.192,4.542,9.584  c3.903,1.393,8.193-0.641,9.585-4.542l18.651-52.257c9.191-25.752-4.282-54.18-30.035-63.371  c-25.752-9.191-54.181,4.283-63.37,30.034l-11.925,33.416l-11.927-33.416c-9.191-25.752-37.62-39.223-63.371-30.034  c-12.432,4.437-22.409,13.488-28.096,25.487c-5.687,11.999-6.375,25.453-1.938,37.883l52.68,147.599l-17.919,50.206  c-7.159,20.058-49.138,26.546-64.813,27.364c-32.881,0.924-64.564,19.412-84.768,49.472c-2.311,3.438-1.397,8.098,2.041,10.408  c3.437,2.312,8.274,1.509,10.408-2.041c23.08-38.398,72.992-42.853,72.992-42.853s16.271-0.858,33.43-5.435  c20.568-5.486,34.496-13.908,41.533-25.088l38.368,13.693c-4,29.093-24.987,158.173-86.484,196.699  c-19.631,12.298-41.064,14.033-65.526,5.302c-20.297-7.245-36.396-23.008-45.329-44.387c-9.047-21.647-9.826-46.701-2.194-70.544  c1.263-3.945-0.912-8.167-4.857-9.429c-3.941-1.26-8.166,0.912-9.429,4.857c-8.718,27.236-7.78,55.967,2.64,80.9  c10.582,25.323,29.805,44.049,54.127,52.73c11.752,4.194,23.124,6.29,34.072,6.289c15.755,0,30.627-4.34,44.46-13.005  c31.874-19.968,57.425-62.171,75.942-125.441c10.52-35.942,15.572-68.083,17.403-81.543c2.218-0.17,4.404-0.496,6.551-0.956  c2.166,0.464,4.356,0.783,6.558,0.952c2.626,19.4,11.881,77.33,34.377,129.073c1.65,3.799,6.068,5.538,9.868,3.888  c3.799-1.651,5.539-6.07,3.888-9.868c-21.65-49.799-30.806-107.288-33.306-125.516l38.37-13.694  c7.038,11.18,20.966,19.602,41.534,25.088c17.157,4.577,32.773,5.402,33.43,5.435c0,0,26.797,0.678,50.334,18.638  c15.813,12.066,27.772,28.738,34.679,48.086c8.679,24.315,8.537,50.091-0.399,72.579c-8.801,22.148-25.113,38.438-45.934,45.87  c-22.931,8.183-43.144,7.166-61.799-3.109c-16.047-8.839-30.774-24.696-43.772-47.13c-2.077-3.584-6.666-4.806-10.249-2.729  c-3.584,2.077-4.807,6.665-2.729,10.249c14.385,24.828,31.044,42.575,49.515,52.748c12.559,6.918,25.938,10.38,40.02,10.38  c10.948,0,22.321-2.093,34.058-6.282c24.941-8.902,44.413-28.242,54.831-54.457C499.541,425.378,499.749,395.844,489.844,368.095z   M164.789,61.218c-3.09-8.658-2.605-18.04,1.366-26.418c3.971-8.379,10.926-14.694,19.583-17.785  c17.96-6.409,37.791,2.987,44.203,20.949l18.09,50.684l-36.725,102.9L164.789,61.218z M300.683,236.17l9.235,25.873l-23.073,8.235  c2.289-3.378,4.188-7.068,5.601-11.03L300.683,236.17z" fill="#000000" data-original="#000000" class=""/>
<path xmlns="http://www.w3.org/2000/svg" d="M379.154,451.276c16.155,10.229,34.02,7.402,37.982,5.987c11.842-4.227,21.175-14.681,25.607-28.683  c4.265-13.471,3.786-28.812-1.348-43.193c-5.133-14.382-14.475-26.558-26.306-34.286c-12.296-8.033-26.143-10.215-37.98-5.987  c-11.843,4.227-21.177,14.68-25.609,28.683c-4.265,13.471-3.786,28.811,1.348,43.193  C357.981,431.373,367.215,443.717,379.154,451.276z M365.801,378.324c3.049-9.631,8.855-16.408,16.351-19.083  c16.056-5.731,37.142,8.841,45.118,31.188c3.98,11.152,4.408,23.407,1.174,33.625c-3.049,9.631-8.855,16.408-16.35,19.083  c-16.062,5.732-37.145-8.843-45.119-31.188C362.994,400.797,362.566,388.542,365.801,378.324z" fill="#000000" data-original="#000000" class=""/>
<path xmlns="http://www.w3.org/2000/svg" d="M94.851,457.263c3.963,1.415,20.014,5.422,37.982-5.987c11.929-7.574,21.172-19.903,26.306-34.286  c5.134-14.382,5.612-29.722,1.347-43.193c-4.433-14.001-13.766-24.457-25.608-28.683c-11.844-4.228-25.686-2.045-37.982,5.987  c-11.831,7.728-21.172,19.903-26.305,34.286c-5.133,14.381-5.612,29.722-1.348,43.193C73.675,442.581,83.01,453.037,94.851,457.263z   M84.718,390.429c16.166-38.477,42.744-32.036,45.119-31.188c16.059,5.732,23.151,30.362,15.176,52.708  c-3.98,11.152-11.41,20.908-20.382,26.769c-8.458,5.525-17.243,7.093-24.738,4.419c-7.495-2.675-13.3-9.453-16.349-19.083  C80.31,413.836,80.131,401.345,84.718,390.429z" fill="#000000" data-original="#000000" class=""/>
<path xmlns="http://www.w3.org/2000/svg" d="M233.403,218.936c-4.446,12.457,1.957,26.546,14.528,30.654c15.335,5.011,27.155-4.727,30.654-14.527l0,0  c4.445-12.456-2.072-26.208-14.527-30.654C251.597,199.961,237.849,206.478,233.403,218.936z M264.458,230.019  c-1.667,4.667-6.82,7.107-11.486,5.444c-4.667-1.666-7.109-6.818-5.444-11.485c0.807-2.261,4.659-8.006,11.485-5.444  C263.653,220.276,266.123,225.351,264.458,230.019z" fill="#000000" data-original="#000000" class=""/>
<g xmlns="http://www.w3.org/2000/svg">
</g>
<g xmlns="http://www.w3.org/2000/svg">
</g>
<g xmlns="http://www.w3.org/2000/svg">
</g>
<g xmlns="http://www.w3.org/2000/svg">
</g>
<g xmlns="http://www.w3.org/2000/svg">
</g>
<g xmlns="http://www.w3.org/2000/svg">
</g>
<g xmlns="http://www.w3.org/2000/svg">
</g>
<g xmlns="http://www.w3.org/2000/svg">
</g>
<g xmlns="http://www.w3.org/2000/svg">
</g>
<g xmlns="http://www.w3.org/2000/svg">
</g>
<g xmlns="http://www.w3.org/2000/svg">
</g>
<g xmlns="http://www.w3.org/2000/svg">
</g>
<g xmlns="http://www.w3.org/2000/svg">
</g>
<g xmlns="http://www.w3.org/2000/svg">
</g>
<g xmlns="http://www.w3.org/2000/svg">
</g>
</g></svg>
